<svg width="600" height="436" viewBox="0 0 600 436" fill="none" xmlns="http://www.w3.org/2000/svg">
    <path
        d="M150.558 7.80563H518.208C525.19 7.80563 530.855 13.3588 530.855 20.1943V304.286C530.855 311.132 525.19 316.674 518.208 316.674H150.558"
        fill="#C4A78C" />
    <path
        d="M518.208 324.491H150.558V308.88H518.208C520.874 308.88 523.048 306.817 523.048 304.297V20.1943C523.048 17.663 520.874 15.6113 518.208 15.6113H150.558V0H518.208C529.483 0 538.662 9.06568 538.662 20.1943V304.286C538.662 315.425 529.483 324.48 518.208 324.48V324.491Z"
        fill="#3D0A1D" />
    <path
        d="M154.528 7.80563H145.472C138.426 7.80563 132.714 13.517 132.714 20.5623V303.929C132.714 310.974 138.426 316.685 145.472 316.685H154.528C161.574 316.685 167.286 310.974 167.286 303.929V20.5623C167.286 13.517 161.574 7.80563 154.528 7.80563Z"
        fill="#A97C50" />
    <path
        d="M154.528 324.491H145.461C134.119 324.491 124.896 315.269 124.896 303.929V20.5622C124.896 9.22179 134.119 0 145.461 0H154.528C165.87 0 175.093 9.22179 175.093 20.5622V303.94C175.093 315.28 165.87 324.502 154.528 324.502V324.491ZM145.472 15.6113C142.74 15.6113 140.52 17.8303 140.52 20.5622V303.94C140.52 306.672 142.74 308.891 145.472 308.891H154.539C157.271 308.891 159.491 306.672 159.491 303.94V20.5622C159.491 17.8303 157.271 15.6113 154.539 15.6113H145.472Z"
        fill="#3D0A1D" />
    <path
        d="M132.714 295.499L64.1933 258.823C57.6357 255.311 53.5316 248.475 53.5316 241.038V82.4832C53.5316 74.9675 57.7138 68.0651 64.3829 64.5971L132.714 28.9923V295.499Z"
        fill="#A97C50" />
    <path
        d="M140.52 308.534L60.5019 265.715C51.3903 260.831 45.7249 251.386 45.7249 241.049V82.4832C45.7249 72.0125 51.4907 62.5119 60.7807 57.6724L140.52 16.1242V308.534ZM124.907 41.8716L67.9963 71.5218C63.8922 73.6628 61.3383 77.8667 61.3383 82.4943V241.049C61.3383 245.621 63.8364 249.802 67.8736 251.954L124.907 282.474V41.8605V41.8716Z"
        fill="#3D0A1D" />
    <path
        d="M452.967 293.269H239.599C212.03 293.269 189.591 270.844 189.591 243.268V80.108C189.591 52.543 212.019 30.1074 239.599 30.1074H452.967C480.535 30.1074 502.974 52.5319 502.974 80.108V243.268C502.974 270.833 480.546 293.269 452.967 293.269ZM239.599 39.0281C216.948 39.0281 198.513 57.4606 198.513 80.108V243.268C198.513 265.915 216.948 284.348 239.599 284.348H452.967C475.617 284.348 494.052 265.915 494.052 243.268V80.108C494.052 57.4606 475.617 39.0281 452.967 39.0281H239.599Z"
        fill="#A97C50" />
    <path
        d="M451.506 43.4885H241.059C220.025 43.4885 202.974 60.5376 202.974 81.5688V241.807C202.974 262.838 220.025 279.887 241.059 279.887H451.506C472.54 279.887 489.591 262.838 489.591 241.807V81.5688C489.591 60.5376 472.54 43.4885 451.506 43.4885Z"
        fill="#143F2E" />
    <path
        d="M418.595 146.857C418.595 154.786 416.665 161.264 412.807 166.304C408.948 171.345 403.963 175.359 397.84 178.347L413.688 208.689C415.216 211.544 417.056 213.763 419.219 215.357C421.372 216.963 423.29 218.714 424.952 220.62C426.625 222.527 427.45 225.404 427.45 229.218C427.45 233.031 426.301 236.064 424.004 237.871C421.706 239.677 418.684 240.581 414.937 240.581H370.305C362.309 240.581 358.316 236.789 358.316 229.218C358.316 226.296 359.431 223.553 361.651 220.977C361.717 220.286 361.862 219.606 362.063 218.948C362.275 218.29 362.375 217.61 362.375 216.918C362.375 216.015 361.851 214.175 360.814 211.388C359.766 208.611 358.506 205.478 357.011 201.998C355.517 198.519 354.078 195.219 352.684 192.096C351.848 192.163 351.045 192.197 350.286 192.197C345.97 192.197 341.665 191.706 337.361 190.736V206.481C337.361 208.433 337.461 209.748 337.673 210.44C337.885 211.131 338.61 212.28 339.859 213.885C341.944 216.461 343.784 218.736 345.39 220.71C346.985 222.695 347.788 225.527 347.788 229.207C347.788 233.243 346.662 236.143 344.398 237.915C342.134 239.688 339.1 240.569 335.275 240.569H284.175C280.416 240.569 277.416 239.666 275.152 237.86C272.888 236.053 271.762 233.165 271.762 229.207C271.762 225.594 272.476 222.94 273.903 221.234C275.331 219.528 276.993 218.145 278.911 217.063C280.818 215.982 282.491 214.722 283.918 213.261C285.346 211.8 286.059 209.548 286.059 206.481V130.365C286.059 127.31 285.346 125.035 283.918 123.541C282.491 122.047 280.829 120.764 278.911 119.683C276.993 118.601 275.331 117.218 273.903 115.512C272.476 113.806 271.762 111.186 271.762 107.64C271.762 103.681 272.888 100.793 275.152 98.9865C277.405 97.18 280.416 96.2768 284.175 96.2768H342.257C348.647 96.2768 355.383 96.7675 362.431 97.7376C369.491 98.7077 376.338 100.325 382.974 102.588C389.61 104.852 395.632 107.907 401.019 111.765C406.405 115.624 410.677 120.441 413.844 126.206C417.011 131.971 418.584 138.862 418.584 146.846L418.595 146.857ZM337.361 117.241V172.504C338.888 172.649 340.628 172.716 342.58 172.716C351.056 172.716 357.145 170.296 360.825 165.468C364.506 160.64 366.357 154.261 366.357 146.333C366.357 138.405 363.903 131.402 359.007 125.737C354.112 120.073 347.487 117.241 339.145 117.241H337.372H337.361Z"
        fill="#EF4136" />
    <path
        d="M451.506 287.693H241.048C215.743 287.693 195.156 267.109 195.156 241.807V81.5688C195.156 56.2674 215.743 35.6829 241.048 35.6829H451.506C476.81 35.6829 497.398 56.2674 497.398 81.5688V241.818C497.398 267.12 476.81 287.704 451.506 287.704V287.693ZM241.059 51.2941C224.364 51.2941 210.781 64.8759 210.781 81.5688V241.818C210.781 258.511 224.364 272.093 241.059 272.093H451.517C468.212 272.093 481.796 258.511 481.796 241.818V81.5688C481.796 64.8759 468.212 51.2941 451.517 51.2941H241.059Z"
        fill="#3D0A1D" />
    <path d="M592.193 346.793H184.015V428.194H592.193V346.793Z" fill="#C4A78C" />
    <path d="M600 436H176.208V338.987H600V436ZM191.822 420.389H584.387V354.598H191.822V420.389Z" fill="#3D0A1D" />
    <path d="M184.015 346.793H7.8067V428.194H184.015V346.793Z" fill="#A97C50" />
    <path d="M191.822 436H0V338.987H191.822V436ZM15.6134 420.389H176.208V354.598H15.6134V420.389Z" fill="#3D0A1D" />
    <path d="M576.089 412.583H422.152V362.404H576.089V412.583ZM437.766 396.972H560.476V378.015H437.766V396.972Z"
        fill="#3D0A1D" />
    <path d="M227.509 365.593H211.896V409.383H227.509V365.593Z" fill="#3D0A1D" />
    <path d="M251.587 365.593H235.974V409.383H251.587V365.593Z" fill="#3D0A1D" />
    <path d="M275.665 365.593H260.052V409.383H275.665V365.593Z" fill="#3D0A1D" />
    <path d="M299.743 365.593H284.13V409.383H299.743V365.593Z" fill="#3D0A1D" />
    <path d="M323.822 365.593H308.208V409.383H323.822V365.593Z" fill="#3D0A1D" />
    <path d="M283.182 346.793L272.844 316.685H193.662L204 346.793H283.182Z" fill="#A97C50" />
    <path
        d="M294.112 354.598H198.424L182.732 308.88H278.42L294.112 354.598ZM209.576 338.987H272.253L267.279 324.491H204.602L209.576 338.987Z"
        fill="#3D0A1D" />
    <path d="M283.182 346.793L272.844 316.685H391.059L401.398 346.793H283.182Z" fill="#C4A78C" />
    <path
        d="M412.327 354.598H277.606L261.914 308.88H396.636L412.327 354.598ZM288.758 338.987H390.468L385.494 324.491H283.784L288.758 338.987Z"
        fill="#3D0A1D" />
</svg>