<svg width="32" height="32" viewBox="0 0 32 32" fill="none" xmlns="http://www.w3.org/2000/svg">
<path d="M30.0391 15.3491H1.96033C1.96033 7.59539 8.24596 1.30975 15.9997 1.30975C23.7535 1.30975 30.0391 7.59539 30.0391 15.3491Z" fill="#143F2E"/>
<path d="M30.2822 15.5922H1.71725V15.3491C1.71725 11.5342 3.20298 7.94719 5.90039 5.24978C8.59779 2.55238 12.1848 1.06665 15.9997 1.06665C19.8146 1.06665 23.4016 2.55238 26.099 5.24978C28.7964 7.94719 30.2822 11.5342 30.2822 15.3491V15.5922ZM2.20521 15.106H29.7936C29.6636 7.61054 23.5256 1.55278 15.9991 1.55278C8.47261 1.55278 2.33525 7.61054 2.20521 15.106Z" fill="#3D0A1D"/>
<path d="M29.7219 12.377H2.27752C1.15393 12.377 0.243073 13.2879 0.243073 14.4115V16.0163C0.243073 17.1399 1.15393 18.0507 2.27752 18.0507H29.7219C30.8455 18.0507 31.7563 17.1399 31.7563 16.0163V14.4115C31.7563 13.2879 30.8455 12.377 29.7219 12.377Z" fill="#143F2E"/>
<path d="M29.7219 18.2932H2.27751C1.02208 18.2932 0 17.2717 0 16.0157V14.4109C0 13.1554 1.02148 12.1334 2.27751 12.1334H29.7225C30.9779 12.1334 32 13.1548 32 14.4109V16.0157C32 17.2711 30.9785 18.2932 29.7225 18.2932H29.7219ZM2.27751 12.6201C1.29006 12.6201 0.486128 13.4234 0.486128 14.4115V16.0163C0.486128 17.0038 1.28945 17.8077 2.27751 17.8077H29.7225C30.7099 17.8077 31.5139 17.0044 31.5139 16.0163V14.4115C31.5139 13.424 30.7105 12.6201 29.7225 12.6201H2.27751Z" fill="#3D0A1D"/>
<path d="M30.6455 16.8348H1.35387C1.21958 16.8348 1.11081 16.7261 1.11081 16.5918C1.11081 16.4575 1.21958 16.3487 1.35387 16.3487H30.6455C30.7798 16.3487 30.8886 16.4575 30.8886 16.5918C30.8886 16.7261 30.7798 16.8348 30.6455 16.8348Z" fill="#3D0A1D"/>
<path d="M1.96033 16.5918H30.0397C30.0397 24.3455 23.7541 30.6312 16.0003 30.6312C8.24657 30.6312 1.96033 24.3455 1.96033 16.5918Z" fill="#EF4136"/>
<path d="M29.5359 18.7344C25.4998 18.8292 24.5501 22.4545 24.5501 22.4545C22.5405 21.8942 19.3218 23.4838 19.3218 23.4838C19.3218 23.4838 16.6298 21.834 15.389 21.7878C12.4479 21.6785 11.5686 22.5881 11.5686 22.5881C9.46308 21.3035 6.14587 21.5484 6.14587 21.5484C6.70734 20.454 4.43773 18.8535 4.43773 18.8535L2.0715 18.3576C2.93985 25.2776 8.84509 30.6317 16.0009 30.6317C23.1567 30.6317 28.8462 25.4715 29.878 18.735H29.5371L29.5359 18.7344Z" fill="#A97C50"/>
<path d="M29.5439 20.3021C29.5439 20.3021 25.2471 18.6244 15.9736 18.6244C6.70008 18.6244 2.38751 19.9551 2.38751 19.9551L1.96033 16.5923H30.0397L29.5445 20.3027L29.5439 20.3021Z" fill="#3D0A1D"/>
<path d="M14.8652 26.0779C15.3945 26.1338 15.5057 26.2481 15.787 26.4784C16.0684 26.7093 16.3029 26.9912 16.6414 27.1559C17.3201 27.4859 18.2383 27.1887 18.6005 26.6193C18.9627 26.05 18.8363 25.308 18.434 24.7368C17.7066 23.7038 16.3133 23.2128 15.0244 23.1022C14.1846 23.0305 13.1741 23.0408 12.5026 23.544C12.0639 23.8727 11.6507 24.2203 11.4422 24.7016C11.2514 25.1427 11.2666 26.0007 11.6811 26.3988C11.9503 26.657 12.3993 26.7287 12.787 26.6643C13.5533 26.5367 14.0351 25.991 14.8658 26.0785L14.8652 26.0779Z" fill="#EF4136"/>
<path d="M14.8652 26.2906C15.1824 26.3283 15.3951 26.4261 15.6363 26.6291C15.9499 26.8928 16.227 27.2082 16.6098 27.3741C17.1859 27.6232 17.8926 27.5065 18.3921 27.1389C18.9426 26.7336 19.1267 26.0402 18.9663 25.3888C18.7974 24.7034 18.29 24.1486 17.7194 23.7609C16.56 22.9722 14.9211 22.7005 13.5484 22.9163C12.2699 23.1168 10.9543 24.2622 11.1299 25.6465C11.2253 26.3994 11.7351 26.8971 12.5099 26.8995C13.3558 26.9025 14.0139 26.2262 14.8646 26.2912C15.1374 26.3119 15.1362 25.8865 14.8646 25.8658C14.2575 25.8197 13.7836 26.0919 13.2403 26.31C12.6971 26.5282 11.9345 26.6139 11.6543 25.991C11.1238 24.814 12.3124 23.6406 13.3837 23.3805C13.9853 23.2347 14.6392 23.2645 15.2492 23.3386C15.8642 23.4133 16.4834 23.5762 17.0382 23.8551C17.593 24.134 18.0852 24.5181 18.3805 25.0558C18.6995 25.6362 18.6989 26.4103 18.1125 26.8187C17.8512 27.001 17.5213 27.0958 17.2029 27.0806C16.8055 27.0623 16.5174 26.8515 16.2324 26.5932C16.0392 26.4176 15.8454 26.228 15.6236 26.0864C15.3927 25.9394 15.1314 25.8974 14.8646 25.8658C14.5978 25.8343 14.5954 26.259 14.8646 26.2912L14.8652 26.2906Z" fill="#3D0A1D"/>
<path d="M12.9274 25.2017C12.8113 25.2017 12.7086 25.1184 12.6879 25C12.6648 24.8681 12.753 24.7423 12.8848 24.7192C12.9201 24.7125 13.6681 24.5655 13.7836 23.8247C13.8042 23.6923 13.9282 23.6005 14.0613 23.6218C14.1937 23.6424 14.2849 23.7664 14.2642 23.8995C14.0947 24.9902 13.0149 25.1901 12.9693 25.198C12.9553 25.2005 12.9413 25.2017 12.9274 25.2017Z" fill="#3D0A1D"/>
<path d="M15.756 25.5499C14.3748 25.5499 13.5879 24.7095 13.549 24.667C13.4585 24.5679 13.4651 24.4142 13.5642 24.3236C13.6632 24.2331 13.8164 24.2398 13.9069 24.3388C13.9476 24.3826 14.8828 25.3639 16.5107 24.9708C16.6414 24.9392 16.7726 25.0194 16.8042 25.15C16.8358 25.2807 16.7556 25.4119 16.625 25.4435C16.3139 25.5189 16.0234 25.5505 15.7554 25.5505L15.756 25.5499Z" fill="#3D0A1D"/>
<path d="M6.38955 21.7028C6.27835 21.7028 6.17809 21.6256 6.15256 21.5126C5.7588 19.7479 3.95891 18.8516 3.94068 18.8425C3.81976 18.7836 3.76993 18.6384 3.82887 18.5174C3.88781 18.3965 4.03305 18.3467 4.15397 18.4056C4.23661 18.4457 6.18295 19.4156 6.62715 21.4063C6.65631 21.5375 6.57367 21.6669 6.44303 21.6967C6.4254 21.701 6.40717 21.7028 6.38955 21.7028Z" fill="#3D0A1D"/>
<path d="M11.4939 22.7966C11.4477 22.7966 11.4009 22.7832 11.3596 22.7559C9.52386 21.5332 5.74543 21.8371 5.70715 21.8401C5.57346 21.8517 5.45557 21.752 5.44464 21.6183C5.43309 21.4846 5.53275 21.3667 5.66643 21.3558C5.82807 21.3418 9.65208 21.0344 11.6294 22.3512C11.7412 22.4253 11.7716 22.5766 11.6969 22.6884C11.6501 22.7589 11.5729 22.7966 11.4945 22.7966H11.4939Z" fill="#3D0A1D"/>
<path d="M24.6771 22.6276C24.6564 22.6276 24.6358 22.6252 24.6151 22.6197C24.4851 22.5857 24.4079 22.4526 24.4419 22.3232C25.0034 20.1855 26.46 19.2569 27.5829 18.8547C28.7879 18.4232 29.8495 18.4919 29.8939 18.4949C30.0275 18.5047 30.1284 18.6207 30.1193 18.7544C30.1096 18.8881 29.9941 18.9902 29.8598 18.9799C29.8495 18.9792 28.8414 18.9161 27.7306 19.3183C26.2661 19.8482 25.3176 20.9007 24.9117 22.4466C24.8831 22.5559 24.7847 22.6282 24.6765 22.6282L24.6771 22.6276Z" fill="#3D0A1D"/>
<path d="M15.9997 30.8742C12.1848 30.8742 8.59779 29.3885 5.90039 26.6911C3.20298 23.9937 1.71725 20.4066 1.71725 16.5918V16.3487H30.2822V16.5918C30.2822 20.4066 28.7964 23.9937 26.099 26.6911C23.4016 29.3885 19.8146 30.8742 15.9997 30.8742ZM2.20521 16.8348C2.33525 24.3303 8.47322 30.3881 15.9997 30.3881C23.5262 30.3881 29.6636 24.3303 29.7942 16.8348H2.20521Z" fill="#3D0A1D"/>
<path d="M14.6847 21.1201C14.6081 21.1201 14.5328 21.0842 14.4854 21.0161C14.4082 20.9062 14.435 20.7548 14.5449 20.6777L14.5656 20.6631C15.4333 20.0548 16.5952 20.0609 17.4562 20.6795C17.565 20.7579 17.5905 20.9098 17.5121 21.0186C17.4338 21.1273 17.2818 21.1529 17.1731 21.0745C16.4791 20.5768 15.5439 20.5713 14.8445 21.0617L14.8233 21.0763C14.7807 21.1061 14.7321 21.1201 14.6841 21.1201H14.6847Z" fill="#3D0A1D"/>
<path d="M19.3607 23.7002C19.2841 23.7002 19.2088 23.6643 19.1614 23.5969C19.0842 23.4869 19.1109 23.3356 19.2203 23.2584C19.3388 23.1752 22.1565 21.2349 25.2434 22.4794C25.368 22.5298 25.4282 22.6714 25.3777 22.796C25.3273 22.9205 25.1857 22.9807 25.0611 22.9303C22.224 21.786 19.5266 23.6376 19.4992 23.6564C19.4567 23.6862 19.4081 23.7002 19.3601 23.7002H19.3607Z" fill="#3D0A1D"/>
<path d="M19.8547 24.1377C19.3831 22.7845 17.9144 22.0692 16.6043 21.769C15.2474 21.4585 13.696 21.5065 12.3908 22.0133C11.6841 22.288 11.057 22.7121 10.6328 23.3502C10.4809 23.5787 10.8492 23.792 10.9999 23.5647C11.8974 22.2151 13.8297 21.9513 15.3203 22.0218C16.8109 22.0923 18.8976 22.683 19.4439 24.2507C19.5332 24.5078 19.9446 24.3972 19.8541 24.1377H19.8547Z" fill="#3D0A1D"/>
<path d="M4.69358 15.8164C5.39633 15.8164 5.96602 15.2467 5.96602 14.5439C5.96602 13.8412 5.39633 13.2715 4.69358 13.2715C3.99083 13.2715 3.42114 13.8412 3.42114 14.5439C3.42114 15.2467 3.99083 15.8164 4.69358 15.8164Z" fill="#EFCF9C"/>
<path d="M4.69357 16.0588C3.85804 16.0588 3.17807 15.3789 3.17807 14.5433C3.17807 13.7078 3.85804 13.0278 4.69357 13.0278C5.52911 13.0278 6.20908 13.7078 6.20908 14.5433C6.20908 15.3789 5.52911 16.0588 4.69357 16.0588ZM4.69357 13.5146C4.12602 13.5146 3.6642 13.9764 3.6642 14.5439C3.6642 15.1115 4.12602 15.5733 4.69357 15.5733C5.26113 15.5733 5.72295 15.1115 5.72295 14.5439C5.72295 13.9764 5.26113 13.5146 4.69357 13.5146Z" fill="#3D0A1D"/>
<path d="M23.4363 7.88885C23.2582 7.74301 23.0583 7.61905 22.9155 7.43857C22.7727 7.2581 22.6979 6.99741 22.8104 6.79688C22.9532 6.54227 23.3032 6.51007 23.5936 6.53377C24.5009 6.60912 25.4148 6.95791 26.0188 7.6391C26.6228 8.32029 26.8537 9.36303 26.4424 10.1761C26.2455 10.565 25.8578 10.9047 25.4233 10.8676C25.1091 10.8409 24.6151 10.5832 24.4851 10.2849C24.4079 10.108 24.3939 9.91114 24.3812 9.71912C24.3338 9.00512 24.0038 8.3531 23.4363 7.88885Z" fill="#EFCF9C"/>
<path d="M23.587 7.73814C23.3883 7.58015 23.0729 7.41122 22.9951 7.15236C22.8979 6.82969 23.1756 6.74462 23.4308 6.73976C23.9066 6.73064 24.4225 6.86858 24.8558 7.06182C25.7514 7.46105 26.4527 8.2905 26.4375 9.30834C26.4302 9.77684 26.2424 10.3304 25.8061 10.568C25.4221 10.7771 24.8169 10.5443 24.657 10.1378C24.5774 9.93605 24.5993 9.68934 24.5683 9.47727C24.5343 9.24635 24.4735 9.02456 24.383 8.80884C24.2068 8.38955 23.9333 8.03103 23.5876 7.73753C23.3797 7.56131 23.0777 7.86089 23.2868 8.03833C23.7006 8.38895 23.9953 8.83193 24.1168 9.36424C24.2201 9.81816 24.1357 10.3128 24.507 10.661C24.7847 10.9217 25.2088 11.1155 25.5953 11.0754C26.0346 11.0298 26.4016 10.6968 26.6064 10.3219C27.0634 9.48456 26.875 8.41568 26.3196 7.67312C25.7235 6.87648 24.7488 6.4578 23.7826 6.34113C23.356 6.28948 22.7842 6.29616 22.5946 6.76771C22.3674 7.33283 22.9064 7.73693 23.288 8.03954C23.5001 8.20786 23.8033 7.90889 23.5888 7.73875L23.587 7.73814Z" fill="#3D0A1D"/>
<path d="M21.6151 5.2583C21.558 5.19085 21.5239 5.09788 21.5476 5.0128C21.5713 4.92652 21.6491 4.86271 21.7348 4.83597C21.8205 4.80924 21.9122 4.8141 22.001 4.82747C22.3376 4.87669 22.8201 5.08633 23.0194 5.38044C23.0777 5.46673 23.0972 5.58826 23.0382 5.67394C22.9617 5.78393 22.8 5.78636 22.6694 5.75476C22.4834 5.70979 22.3285 5.60102 22.1529 5.53418C21.9651 5.46247 21.7542 5.42237 21.6157 5.25891L21.6151 5.2583Z" fill="#EFCF9C"/>
<path d="M21.7986 5.15074C21.654 4.92591 22.1954 5.08937 22.2744 5.11793C22.4111 5.16776 22.6949 5.27775 22.7745 5.41751C22.8553 5.46491 22.8572 5.49833 22.78 5.51838C22.7362 5.56031 22.6876 5.56152 22.6347 5.52203C22.5357 5.49833 22.4397 5.42905 22.3461 5.38652C22.1498 5.2978 21.9226 5.26316 21.7652 5.10821C21.5701 4.91558 21.2693 5.21637 21.4644 5.409C21.6412 5.5834 21.8484 5.64295 22.0727 5.73167C22.2969 5.82039 22.529 5.98142 22.7915 5.98263C23.2631 5.98445 23.4138 5.50683 23.1257 5.17201C22.8584 4.86089 22.4032 4.65915 22.0003 4.61418C21.5495 4.56435 21.1429 4.91862 21.4316 5.36525C21.5792 5.59434 21.9481 5.38166 21.7986 5.15074Z" fill="#3D0A1D"/>
</svg>
