<svg width="560" height="560" viewBox="0 0 560 560" fill="none" xmlns="http://www.w3.org/2000/svg">
<path d="M511.12 265.46H49.04C49.04 137.86 152.48 34.42 280.08 34.42C407.68 34.42 511.12 137.86 511.12 265.46Z" fill="#143F2E"/>
<path d="M515.12 269.46H45.04V265.46C45.04 202.68 69.49 143.65 113.88 99.26C158.27 54.87 217.3 30.42 280.08 30.42C342.86 30.42 401.89 54.87 446.28 99.26C490.67 143.65 515.12 202.68 515.12 265.46V269.46ZM53.07 261.46H507.08C504.94 138.11 403.93 38.42 280.07 38.42C156.21 38.42 55.21 138.11 53.07 261.46Z" fill="#3D0A1D"/>
<path d="M505.9 216.55H54.26C35.7695 216.55 20.78 231.539 20.78 250.03V276.44C20.78 294.93 35.7695 309.92 54.26 309.92H505.9C524.391 309.92 539.38 294.93 539.38 276.44V250.03C539.38 231.539 524.391 216.55 505.9 216.55Z" fill="#143F2E"/>
<path d="M505.9 313.91H54.26C33.6 313.91 16.78 297.1 16.78 276.43V250.02C16.78 229.36 33.59 212.54 54.26 212.54H505.91C526.57 212.54 543.39 229.35 543.39 250.02V276.43C543.39 297.09 526.58 313.91 505.91 313.91H505.9ZM54.26 220.55C38.01 220.55 24.78 233.77 24.78 250.03V276.44C24.78 292.69 38 305.92 54.26 305.92H505.91C522.16 305.92 535.39 292.7 535.39 276.44V250.03C535.39 233.78 522.17 220.55 505.91 220.55H54.26Z" fill="#3D0A1D"/>
<path d="M521.1 289.91H39.0601C36.8501 289.91 35.0601 288.12 35.0601 285.91C35.0601 283.7 36.8501 281.91 39.0601 281.91H521.1C523.31 281.91 525.1 283.7 525.1 285.91C525.1 288.12 523.31 289.91 521.1 289.91Z" fill="#3D0A1D"/>
<path d="M49.04 285.91H511.13C511.13 413.51 407.69 516.95 280.09 516.95C152.49 516.95 49.04 413.51 49.04 285.91Z" fill="#EF4136"/>
<path d="M502.84 321.17C436.42 322.73 420.79 382.39 420.79 382.39C387.72 373.17 334.75 399.33 334.75 399.33C334.75 399.33 290.45 372.18 270.03 371.42C221.63 369.62 207.16 384.59 207.16 384.59C172.51 363.45 117.92 367.48 117.92 367.48C127.16 349.47 89.81 323.13 89.81 323.13L50.87 314.97C65.16 428.85 162.34 516.96 280.1 516.96C397.86 516.96 491.49 432.04 508.47 321.18H502.86L502.84 321.17Z" fill="#A97C50"/>
<path d="M502.97 346.97C502.97 346.97 432.26 319.36 279.65 319.36C127.04 319.36 56.07 341.26 56.07 341.26L49.04 285.92H511.13L502.98 346.98L502.97 346.97Z" fill="#3D0A1D"/>
<path d="M261.41 442.02C270.12 442.94 271.95 444.82 276.58 448.61C281.21 452.41 285.07 457.05 290.64 459.76C301.81 465.19 316.92 460.3 322.88 450.93C328.84 441.56 326.76 429.35 320.14 419.95C308.17 402.95 285.24 394.87 264.03 393.05C250.21 391.87 233.58 392.04 222.53 400.32C215.31 405.73 208.51 411.45 205.08 419.37C201.94 426.63 202.19 440.75 209.01 447.3C213.44 451.55 220.83 452.73 227.21 451.67C239.82 449.57 247.75 440.59 261.42 442.03L261.41 442.02Z" fill="#EF4136"/>
<path d="M261.41 445.52C266.63 446.14 270.13 447.75 274.1 451.09C279.26 455.43 283.82 460.62 290.12 463.35C299.6 467.45 311.23 465.53 319.45 459.48C328.51 452.81 331.54 441.4 328.9 430.68C326.12 419.4 317.77 410.27 308.38 403.89C289.3 390.91 262.33 386.44 239.74 389.99C218.7 393.29 197.05 412.14 199.94 434.92C201.51 447.31 209.9 455.5 222.65 455.54C236.57 455.59 247.4 444.46 261.4 445.53C265.89 445.87 265.87 438.87 261.4 438.53C251.41 437.77 243.61 442.25 234.67 445.84C225.73 449.43 213.18 450.84 208.57 440.59C199.84 421.22 219.4 401.91 237.03 397.63C246.93 395.23 257.69 395.72 267.73 396.94C277.85 398.17 288.04 400.85 297.17 405.44C306.3 410.03 314.4 416.35 319.26 425.2C324.51 434.75 324.5 447.49 314.85 454.21C310.55 457.21 305.12 458.77 299.88 458.52C293.34 458.22 288.6 454.75 283.91 450.5C280.73 447.61 277.54 444.49 273.89 442.16C270.09 439.74 265.79 439.05 261.4 438.53C257.01 438.01 256.97 445 261.4 445.53L261.41 445.52Z" fill="#3D0A1D"/>
<path d="M229.52 427.6C227.61 427.6 225.92 426.23 225.58 424.28C225.2 422.11 226.65 420.04 228.82 419.66C229.4 419.55 241.71 417.13 243.61 404.94C243.95 402.76 245.99 401.25 248.18 401.6C250.36 401.94 251.86 403.98 251.52 406.17C248.73 424.12 230.96 427.41 230.21 427.54C229.98 427.58 229.75 427.6 229.52 427.6Z" fill="#3D0A1D"/>
<path d="M276.07 433.33C253.34 433.33 240.39 419.5 239.75 418.8C238.26 417.17 238.37 414.64 240 413.15C241.63 411.66 244.15 411.77 245.64 413.4C246.31 414.12 261.7 430.27 288.49 423.8C290.64 423.28 292.8 424.6 293.32 426.75C293.84 428.9 292.52 431.06 290.37 431.58C285.25 432.82 280.47 433.34 276.06 433.34L276.07 433.33Z" fill="#3D0A1D"/>
<path d="M121.93 370.02C120.1 370.02 118.45 368.75 118.03 366.89C111.55 337.85 81.93 323.1 81.63 322.95C79.64 321.98 78.82 319.59 79.79 317.6C80.76 315.61 83.15 314.79 85.14 315.76C86.5 316.42 118.53 332.38 125.84 365.14C126.32 367.3 124.96 369.43 122.81 369.92C122.52 369.99 122.22 370.02 121.93 370.02Z" fill="#3D0A1D"/>
<path d="M205.93 388.02C205.17 388.02 204.4 387.8 203.72 387.35C173.51 367.23 111.33 372.23 110.7 372.28C108.5 372.47 106.56 370.83 106.38 368.63C106.19 366.43 107.83 364.49 110.03 364.31C112.69 364.08 175.62 359.02 208.16 380.69C210 381.91 210.5 384.4 209.27 386.24C208.5 387.4 207.23 388.02 205.94 388.02H205.93Z" fill="#3D0A1D"/>
<path d="M422.88 385.24C422.54 385.24 422.2 385.2 421.86 385.11C419.72 384.55 418.45 382.36 419.01 380.23C428.25 345.05 452.22 329.77 470.7 323.15C490.53 316.05 508 317.18 508.73 317.23C510.93 317.39 512.59 319.3 512.44 321.5C512.28 323.7 510.38 325.38 508.17 325.21C508 325.2 491.41 324.16 473.13 330.78C449.03 339.5 433.42 356.82 426.74 382.26C426.27 384.06 424.65 385.25 422.87 385.25L422.88 385.24Z" fill="#3D0A1D"/>
<path d="M280.08 520.95C217.3 520.95 158.27 496.5 113.88 452.11C69.49 407.72 45.04 348.69 45.04 285.91V281.91H515.12V285.91C515.12 348.69 490.67 407.72 446.28 452.11C401.89 496.5 342.86 520.95 280.08 520.95ZM53.07 289.91C55.21 413.26 156.22 512.95 280.08 512.95C403.94 512.95 504.94 413.26 507.09 289.91H53.07Z" fill="#3D0A1D"/>
<path d="M258.44 360.43C257.18 360.43 255.94 359.84 255.16 358.72C253.89 356.91 254.33 354.42 256.14 353.15L256.48 352.91C270.76 342.9 289.88 343 304.05 353.18C305.84 354.47 306.26 356.97 304.97 358.76C303.68 360.55 301.18 360.97 299.39 359.68C287.97 351.49 272.58 351.4 261.07 359.47L260.72 359.71C260.02 360.2 259.22 360.43 258.43 360.43H258.44Z" fill="#3D0A1D"/>
<path d="M335.39 402.89C334.13 402.89 332.89 402.3 332.11 401.19C330.84 399.38 331.28 396.89 333.08 395.62C335.03 394.25 381.4 362.32 432.2 382.8C434.25 383.63 435.24 385.96 434.41 388.01C433.58 390.06 431.25 391.05 429.2 390.22C382.51 371.39 338.12 401.86 337.67 402.17C336.97 402.66 336.17 402.89 335.38 402.89H335.39Z" fill="#3D0A1D"/>
<path d="M343.52 410.09C335.76 387.82 311.59 376.05 290.03 371.11C267.7 366 242.17 366.79 220.69 375.13C209.06 379.65 198.74 386.63 191.76 397.13C189.26 400.89 195.32 404.4 197.8 400.66C212.57 378.45 244.37 374.11 268.9 375.27C293.43 376.43 327.77 386.15 336.76 411.95C338.23 416.18 345 414.36 343.51 410.09H343.52Z" fill="#3D0A1D"/>
<path d="M94.02 273.15C105.585 273.15 114.96 263.775 114.96 252.21C114.96 240.645 105.585 231.27 94.02 231.27C82.4551 231.27 73.08 240.645 73.08 252.21C73.08 263.775 82.4551 273.15 94.02 273.15Z" fill="#EFCF9C"/>
<path d="M94.02 277.14C80.27 277.14 69.08 265.95 69.08 252.2C69.08 238.45 80.27 227.26 94.02 227.26C107.77 227.26 118.96 238.45 118.96 252.2C118.96 265.95 107.77 277.14 94.02 277.14ZM94.02 235.27C84.68 235.27 77.08 242.87 77.08 252.21C77.08 261.55 84.68 269.15 94.02 269.15C103.36 269.15 110.96 261.55 110.96 252.21C110.96 242.87 103.36 235.27 94.02 235.27Z" fill="#3D0A1D"/>
<path d="M402.46 142.69C399.53 140.29 396.24 138.25 393.89 135.28C391.54 132.31 390.31 128.02 392.16 124.72C394.51 120.53 400.27 120 405.05 120.39C419.98 121.63 435.02 127.37 444.96 138.58C454.9 149.79 458.7 166.95 451.93 180.33C448.69 186.73 442.31 192.32 435.16 191.71C429.99 191.27 421.86 187.03 419.72 182.12C418.45 179.21 418.22 175.97 418.01 172.81C417.23 161.06 411.8 150.33 402.46 142.69Z" fill="#EFCF9C"/>
<path d="M404.94 140.21C401.67 137.61 396.48 134.83 395.2 130.57C393.6 125.26 398.17 123.86 402.37 123.78C410.2 123.63 418.69 125.9 425.82 129.08C440.56 135.65 452.1 149.3 451.85 166.05C451.73 173.76 448.64 182.87 441.46 186.78C435.14 190.22 425.18 186.39 422.55 179.7C421.24 176.38 421.6 172.32 421.09 168.83C420.53 165.03 419.53 161.38 418.04 157.83C415.14 150.93 410.64 145.03 404.95 140.2C401.53 137.3 396.56 142.23 400 145.15C406.81 150.92 411.66 158.21 413.66 166.97C415.36 174.44 413.97 182.58 420.08 188.31C424.65 192.6 431.63 195.79 437.99 195.13C445.22 194.38 451.26 188.9 454.63 182.73C462.15 168.95 459.05 151.36 449.91 139.14C440.1 126.03 424.06 119.14 408.16 117.22C401.14 116.37 391.73 116.48 388.61 124.24C384.87 133.54 393.74 140.19 400.02 145.17C403.51 147.94 408.5 143.02 404.97 140.22L404.94 140.21Z" fill="#3D0A1D"/>
<path d="M372.49 99.4C371.55 98.29 370.99 96.76 371.38 95.36C371.77 93.94 373.05 92.89 374.46 92.45C375.87 92.01 377.38 92.09 378.84 92.31C384.38 93.12 392.32 96.57 395.6 101.41C396.56 102.83 396.88 104.83 395.91 106.24C394.65 108.05 391.99 108.09 389.84 107.57C386.78 106.83 384.23 105.04 381.34 103.94C378.25 102.76 374.78 102.1 372.5 99.41L372.49 99.4Z" fill="#EFCF9C"/>
<path d="M375.51 97.63C373.13 93.93 382.04 96.62 383.34 97.09C385.59 97.91 390.26 99.72 391.57 102.02C392.9 102.8 392.93 103.35 391.66 103.68C390.94 104.37 390.14 104.39 389.27 103.74C387.64 103.35 386.06 102.21 384.52 101.51C381.29 100.05 377.55 99.48 374.96 96.93C371.75 93.76 366.8 98.71 370.01 101.88C372.92 104.75 376.33 105.73 380.02 107.19C383.71 108.65 387.53 111.3 391.85 111.32C399.61 111.35 402.09 103.49 397.35 97.98C392.95 92.86 385.46 89.54 378.83 88.8C371.41 87.98 364.72 93.81 369.47 101.16C371.9 104.93 377.97 101.43 375.51 97.63Z" fill="#3D0A1D"/>
</svg>
