<svg width="32" height="32" viewBox="0 0 32 32" fill="none" xmlns="http://www.w3.org/2000/svg">
  <path
    d="M8.02975 4.42969H27.6378C28.0101 4.42969 28.3123 4.73537 28.3123 5.11163V20.7497C28.3123 21.1266 28.0101 21.4316 27.6378 21.4316H8.02975"
    fill="#C4A78C" />
  <path
    d="M27.6378 21.8619H8.02975V21.0026H27.6378C27.7799 21.0026 27.8959 20.889 27.8959 20.7503V5.11161C27.8959 4.97228 27.7799 4.85934 27.6378 4.85934H8.02975V4H27.6378C28.2391 4 28.7286 4.49903 28.7286 5.11161V20.7497C28.7286 21.3629 28.2391 21.8613 27.6378 21.8613V21.8619Z"
    fill="#3D0A1D" />
  <path
    d="M8.24148 4.42969H7.75851C7.38271 4.42969 7.07806 4.74407 7.07806 5.13189V20.73C7.07806 21.1179 7.38271 21.4322 7.75851 21.4322H8.24148C8.61728 21.4322 8.92193 21.1179 8.92193 20.73V5.13189C8.92193 4.74407 8.61728 4.42969 8.24148 4.42969Z"
    fill="#A97C50" />
  <path
    d="M8.24147 21.8619H7.7579C7.153 21.8619 6.6611 21.3543 6.6611 20.73V5.13187C6.6611 4.50762 7.153 4 7.7579 4H8.24147C8.84638 4 9.33828 4.50762 9.33828 5.13187V20.7306C9.33828 21.3549 8.84638 21.8625 8.24147 21.8625V21.8619ZM7.7585 4.85933C7.61278 4.85933 7.49441 4.98148 7.49441 5.13187V20.7306C7.49441 20.881 7.61278 21.0032 7.7585 21.0032H8.24207C8.38779 21.0032 8.50616 20.881 8.50616 20.7306V5.13187C8.50616 4.98148 8.38779 4.85933 8.24207 4.85933H7.7585Z"
    fill="#3D0A1D" />
  <path
    d="M7.07806 20.266L3.42364 18.2471C3.0739 18.0538 2.85501 17.6775 2.85501 17.2681V8.54034C2.85501 8.12663 3.07806 7.74668 3.43375 7.55578L7.07806 5.59589V20.266Z"
    fill="#A97C50" />
  <path
    d="M7.49442 20.9835L3.22676 18.6265C2.74082 18.3577 2.43866 17.8378 2.43866 17.2688V8.54036C2.43866 7.96399 2.74617 7.44103 3.24163 7.17463L7.49442 4.88757V20.9835ZM6.66171 6.30486L3.62647 7.93699C3.40758 8.05484 3.27137 8.28624 3.27137 8.54098V17.2688C3.27137 17.5204 3.40461 17.7506 3.61992 17.8691L6.66171 19.5491V6.30425V6.30486Z"
    fill="#3D0A1D" />
  <path
    d="M24.1582 20.1432H12.7786C11.3082 20.1432 10.1115 18.9088 10.1115 17.3909V8.40961C10.1115 6.89227 11.3076 5.65729 12.7786 5.65729H24.1582C25.6285 5.65729 26.8253 6.89166 26.8253 8.40961V17.3909C26.8253 18.9082 25.6291 20.1432 24.1582 20.1432ZM12.7786 6.14834C11.5705 6.14834 10.5873 7.16297 10.5873 8.40961V17.3909C10.5873 18.6375 11.5705 19.6522 12.7786 19.6522H24.1582C25.3662 19.6522 26.3494 18.6375 26.3494 17.3909V8.40961C26.3494 7.16297 25.3662 6.14834 24.1582 6.14834H12.7786Z"
    fill="#A97C50" />
  <path
    d="M24.0803 6.39386H12.8565C11.7347 6.39386 10.8253 7.33234 10.8253 8.49002V17.3105C10.8253 18.4682 11.7347 19.4066 12.8565 19.4066H24.0803C25.2021 19.4066 26.1115 18.4682 26.1115 17.3105V8.49002C26.1115 7.33234 25.2021 6.39386 24.0803 6.39386Z"
    fill="#143F2E" />
  <path
    d="M22.3251 12.0839C22.3251 12.5203 22.2222 12.8769 22.0164 13.1544C21.8106 13.4318 21.5447 13.6528 21.2182 13.8173L22.0634 15.4874C22.1448 15.6446 22.243 15.7667 22.3584 15.8545C22.4732 15.9429 22.5755 16.0393 22.6641 16.1442C22.7533 16.2492 22.7973 16.4075 22.7973 16.6175C22.7973 16.8274 22.7361 16.9944 22.6135 17.0938C22.491 17.1932 22.3298 17.2429 22.13 17.2429H19.7496C19.3231 17.2429 19.1102 17.0343 19.1102 16.6175C19.1102 16.4567 19.1697 16.3057 19.288 16.1639C19.2916 16.1258 19.2993 16.0884 19.31 16.0522C19.3213 16.0159 19.3267 15.9785 19.3267 15.9404C19.3267 15.8907 19.2987 15.7894 19.2434 15.636C19.1875 15.4832 19.1203 15.3107 19.0406 15.1192C18.9609 14.9277 18.8842 14.746 18.8098 14.5741C18.7652 14.5778 18.7224 14.5796 18.6819 14.5796C18.4518 14.5796 18.2222 14.5526 17.9926 14.4992V15.3659C17.9926 15.4733 17.9979 15.5458 18.0092 15.5838C18.0205 15.6219 18.0592 15.6851 18.1258 15.7735C18.237 15.9153 18.3352 16.0405 18.4208 16.1491C18.5059 16.2584 18.5487 16.4143 18.5487 16.6169C18.5487 16.8391 18.4886 16.9986 18.3679 17.0962C18.2471 17.1938 18.0854 17.2423 17.8813 17.2423H15.156C14.9555 17.2423 14.7955 17.1926 14.6748 17.0932C14.5541 16.9937 14.494 16.8348 14.494 16.6169C14.494 16.418 14.5321 16.2719 14.6082 16.178C14.6843 16.0841 14.7729 16.008 14.8753 15.9484C14.977 15.8889 15.0662 15.8195 15.1423 15.7391C15.2184 15.6587 15.2565 15.5347 15.2565 15.3659V11.176C15.2565 11.0079 15.2184 10.8826 15.1423 10.8004C15.0662 10.7181 14.9776 10.6476 14.8753 10.588C14.7729 10.5285 14.6843 10.4524 14.6082 10.3584C14.5321 10.2645 14.494 10.1203 14.494 9.92509C14.494 9.70719 14.5541 9.54821 14.6748 9.44878C14.795 9.34934 14.9555 9.29962 15.156 9.29962H18.2537C18.5945 9.29962 18.9538 9.32663 19.3297 9.38003C19.7062 9.43343 20.0714 9.52244 20.4253 9.64704C20.7792 9.77164 21.1004 9.93983 21.3877 10.1522C21.675 10.3646 21.9028 10.6297 22.0717 10.9471C22.2406 11.2644 22.3245 11.6438 22.3245 12.0833L22.3251 12.0839ZM17.9926 10.4536V13.4956C18.0741 13.5036 18.1669 13.5073 18.2709 13.5073C18.723 13.5073 19.0477 13.3741 19.244 13.1083C19.4403 12.8425 19.539 12.4914 19.539 12.055C19.539 11.6186 19.4082 11.2331 19.1471 10.9213C18.886 10.6095 18.5327 10.4536 18.0877 10.4536H17.9932H17.9926Z"
    fill="#EF4136" />
  <path
    d="M24.0803 19.8363H12.8559C11.5063 19.8363 10.4083 18.7032 10.4083 17.3105V8.49C10.4083 7.09727 11.5063 5.96417 12.8559 5.96417H24.0803C25.4299 5.96417 26.5279 7.09727 26.5279 8.49V17.3111C26.5279 18.7038 25.4299 19.8369 24.0803 19.8369V19.8363ZM12.8565 6.82351C11.9661 6.82351 11.2416 7.57113 11.2416 8.49V17.3111C11.2416 18.23 11.9661 18.9776 12.8565 18.9776H24.0809C24.9713 18.9776 25.6958 18.23 25.6958 17.3111V8.49C25.6958 7.57113 24.9713 6.82351 24.0809 6.82351H12.8565Z"
    fill="#3D0A1D" />
  <path d="M31.5836 23.0895H9.81412V27.5704H31.5836V23.0895Z" fill="#C4A78C" />
  <path d="M32 28H9.39777V22.6599H32V28ZM10.2305 27.1407H31.1673V23.5192H10.2305V27.1407Z" fill="#3D0A1D" />
  <path d="M9.81412 23.0895H0.416351V27.5704H9.81412V23.0895Z" fill="#A97C50" />
  <path d="M10.2305 28H0V22.6599H10.2305V28ZM0.832714 27.1407H9.39777V23.5192H0.832714V27.1407Z" fill="#3D0A1D" />
  <path d="M30.7248 26.711H22.5148V23.9489H30.7248V26.711ZM23.3475 25.8517H29.892V24.8082H23.3475V25.8517Z"
    fill="#3D0A1D" />
  <path d="M12.1338 24.1244H11.3011V26.5348H12.1338V24.1244Z" fill="#3D0A1D" />
  <path d="M13.418 24.1244H12.5853V26.5348H13.418V24.1244Z" fill="#3D0A1D" />
  <path d="M14.7022 24.1244H13.8694V26.5348H14.7022V24.1244Z" fill="#3D0A1D" />
  <path d="M15.9863 24.1244H15.1536V26.5348H15.9863V24.1244Z" fill="#3D0A1D" />
  <path d="M17.2705 24.1244H16.4378V26.5348H17.2705V24.1244Z" fill="#3D0A1D" />
  <path d="M15.103 23.0895L14.5517 21.4323H10.3286L10.88 23.0895H15.103Z" fill="#A97C50" />
  <path
    d="M15.686 23.5192H10.5826L9.74573 21.0026H14.8491L15.686 23.5192ZM11.1774 22.6599H14.5202L14.2549 21.8619H10.9121L11.1774 22.6599Z"
    fill="#3D0A1D" />
  <path d="M15.103 23.0895L14.5517 21.4323H20.8565L21.4079 23.0895H15.103Z" fill="#C4A78C" />
  <path
    d="M21.9908 23.5192H14.8057L13.9688 21.0026H21.1539L21.9908 23.5192ZM15.4005 22.6599H20.825L20.5597 21.8619H15.1352L15.4005 22.6599Z"
    fill="#3D0A1D" />
</svg>